<?xml version="1.0" encoding="utf-8"?>
<!-- Generator: Adobe Illustrator 23.1.1, SVG Export Plug-In . SVG Version: 6.00 Build 0)  -->
<svg version="1.1" id="Layer_2" xmlns="http://www.w3.org/2000/svg" xmlns:xlink="http://www.w3.org/1999/xlink" x="0px" y="0px"
	 viewBox="0 0 512 512" style="enable-background:new 0 0 512 512;" xml:space="preserve">
<style type="text/css">
	.st0{fill:#32324C;}
	.st1{fill:#FFA378;}
	.st2{fill:#FFFFFF;}
	.st3{fill:#F88968;}
	.st4{fill:#FFAF82;}
	.st5{fill:#920E08;}
	.st6{fill:#E2E2E2;}
	.st7{fill:#32324C;stroke:#32324C;stroke-width:4;stroke-miterlimit:10;}
</style>
<g id="OBJECTS">
	<g>
		<g>
			<path class="st0" d="M415.7,267.5c5.2,10.8,10.8,22.2,16.5,34.1c17.5,38.2-18.6,42.8-18.6,42.8s15.5,25.8,0.5,46.5
				c-15.5,20.6-40.3,9.8-40.3,9.8s-6.7,11.4-28.9,12.9c-32,2.1-45.9-10.8-45.9-10.8l-35.1-6.7c-4.1,2.6-15,11.4-41.8,14.5
				c-32,3.6-49.5-6.7-49.5-6.7c-6.2,17-47,13.9-55.7-12.9c-8.3-24.8,2.1-35.1,3.1-36.6c-18.6,15-59.9-25.3-28.4-63.5
				c12.9-15.5,20.1-22.7,24.3-30.5c-16,4.1-36.6-15.5-32-32.5c6.2-22.2,25.3-13.4,37.7-44.9c16.5-41.8,32-56.3,33-57.3l0,0
				c25.3-28.4,66.6-47.5,115.1-44.4c41.3,2.6,68.1,25.8,84.6,42.8c13.9,15,22.7,33.5,26.3,52.1c0.5,4.1,1.5,7.7,2.6,11.9
				c7.7,13.9,23.2,38.7,38.2,45.9C442.5,244.8,435.8,271.6,415.7,267.5z"/>
		</g>
		<g>
			<g>
				<g>
					<g>
						<path class="st1" d="M174.1,250.5c0,0-19.1-18.6-34.1-6.7c-18.1,14.5,1,66.1,32.5,60.9L174.1,250.5z"/>
					</g>
				</g>
			</g>
			<path class="st2" d="M164.3,302.1c0,5.2-4.1,9.3-9.3,9.3c-5.2,0-9.3-4.1-9.3-9.3s4.1-9.3,9.3-9.3
				C160.2,292.8,164.3,296.9,164.3,302.1z"/>
			<g>
				<path class="st3" d="M169,287.6c-2.6-7.7-9.8-23.7-27.9-31c0,0,19.1,18.1,20.6,32.5c0,2.1,1.5,3.1,3.6,3.1h0.5
					C168.4,291.8,170,289.7,169,287.6z"/>
			</g>
		</g>
		<g>
			<g>
				<g>
					<g>
						<path class="st1" d="M335.2,250.5c0,0,19.1-18.6,34.1-6.7c18.1,14.5-1,66.1-32.5,60.9L335.2,250.5z"/>
					</g>
				</g>
			</g>
			<path class="st2" d="M366.6,302.1c0,5.2-4.1,9.3-9.3,9.3s-9.3-4.1-9.3-9.3s4.1-9.3,9.3-9.3S366.6,296.9,366.6,302.1z"/>
			<g>
				<path class="st3" d="M340.3,287.6c2.6-7.7,9.8-23.7,27.9-31c0,0-19.1,18.1-20.6,32.5c0,2.1-1.5,3.1-3.6,3.1h-0.5
					C341.4,291.8,339.8,289.7,340.3,287.6z"/>
			</g>
		</g>
		<g>
			<g>
				<path class="st4" d="M296.4,360.9l-1.5,24.8l-1.5,31.5c0,0-6.2,11.9-34.1,11.9s-34.1-8.3-34.1-8.3l-1-13.9l-3.6-46.5
					L296.4,360.9L296.4,360.9z"/>
			</g>
			<g>
				<path class="st3" d="M296.4,360.9l-1.5,24.8c-11.9,8.8-39.2,25.8-71.2,21.2l-3.6-46.5h76.4C296.4,360.4,296.4,360.9,296.4,360.9
					z"/>
			</g>
		</g>
		<path class="st4" d="M357.4,230.9c0,3.1-0.5,6.2-1,9.3c-6.7,64-26.3,145.6-97.6,145.6c-69.2,0-96.5-76.9-105.8-139.4
			c-0.5-4.6-1-9.3-1.5-13.4c-6.2-59.9,40.3-112.5,100.1-113h5.2c44.4,0.5,81.6,29.4,95,69.2c1.5,4.6,3.1,9.8,3.6,14.5
			C357.4,212.3,357.9,221.6,357.4,230.9z"/>
		<g>
			<path class="st5" d="M301.1,298.5c0,0-0.5,8.3-4.6,17.5c-4.1,10.8-12.9,22.7-28.4,23.7c-19.1,1.5-33.5-1-42.3-16
				c-3.6-6.2-6.2-13.9-7.7-24.8c0,0,1.5,1,4.1,2.1c6.7,3.1,21.7,8.8,41.3,6.2c17.5-2.1,28.4-5.7,34.1-7.7
				C300.1,299,301.1,298.5,301.1,298.5z"/>
			<g>
				<path class="st2" d="M295.9,310.4L295.9,310.4c-0.5,1-0.5,2.1-0.5,2.1l0,0c0,0-2.6,4.1-13.4,7.2c-3.6,1-7.7,2.1-12.9,2.6
					c-8.8,1.5-16.5,1-23.2,0c-10.3-1.5-17.5-4.1-18.1-4.6l0,0c-0.5-0.5-1-1.5-1.5-2.1l0,0c-2.1-4.1-3.6-10.3-4.6-13.9
					c6.7,3.1,21.7,8.8,41.3,6.2c17.5-2.1,28.4-5.7,34.1-7.7C297.5,304.2,296.4,308.3,295.9,310.4z"/>
				<path class="st2" d="M296.4,316.5c-4.1,10.8-12.9,22.7-28.4,23.7c-19.1,1.5-33.5-1-42.3-16c0.5-2.1,1-4.1,1.5-5.2
					c0.5-1,0.5-1,0.5-1l0,0c11.4,3.1,22.2,3.6,31.5,3.1c10.3-0.5,19.1-2.6,25.3-4.6c6.7-2.1,10.8-4.1,10.8-4.1l0,0l0.5,1.5
					L296.4,316.5z"/>
				<path class="st6" d="M266,321.2c0,0-9.3,1.5-20.1,1c-6.2,0-12.9-1-18.6-3.1c0.5-1,0.5-1,0.5-1c-0.5-0.5-1-1.5-1.5-2.1
					c0.5,0,10.8,4.1,33,5.2C261.3,321.2,263.9,321.2,266,321.2z"/>
				<path class="st6" d="M295.9,312.4l0.5,1.5c-3.6,3.1-9.3,4.6-13.9,5.7c-5.7,1-12.4,1-12.4,1c4.6-0.5,10.8-2.6,15-4.1
					c6.7-2.6,11.4-5.7,11.4-6.2C295.9,311.4,295.9,312.4,295.9,312.4z"/>
			</g>
		</g>
		<g>
			<g>
				<g>
					<path class="st0" d="M215.4,257.7c-6.2,1-12.4-3.6-12.9-9.8c-0.5-2.1,0-4.6,1-6.2c-9.8-1.5-9.8-7.2-9.8-7.2
						c1.5,2.6,12.4,1,17,0.5l0,0c0.5,0,1,0,1.5,0l0,0h0.5c6.2-0.5,11.4,4.1,12.4,9.8C226.3,251,221.6,256.7,215.4,257.7z"/>
				</g>
			</g>
		</g>
		<g>
			<path class="st3" d="M255.2,353.7c-9.3-1-16-4.6-16.5-5.2c-1.5-0.5-1.5-2.6-1-3.6c0.5-1.5,2.6-1.5,3.6-1
				c1,0.5,19.1,10.3,36.1-0.5c1.5-1,3.1-0.5,3.6,1c1,1.5,0.5,3.1-1,3.6C271.7,353.7,262.4,354.7,255.2,353.7z"/>
		</g>
		<g>
			<path class="st3" d="M266.5,292.8h-13.9c-1.5,0-2.6-1-2.6-2.6c0-1.5,1-2.6,2.6-2.6h13.9c0.5,0,0.5,0,0.5,0v-0.5l-11.4-39.7
				c-0.5-1.5,0.5-3.1,2.1-3.6c1.5-0.5,3.1,0.5,3.6,2.1l11.4,39.2c0.5,2.1,0,4.1-1,5.7C270.1,292.3,268.6,292.8,266.5,292.8z"/>
		</g>
		<path class="st0" d="M230.4,207.6L230.4,207.6c0.5,3.1-2.1,6.2-5.2,6.2c-10.8,0.5-33,2.1-43.4,13.9c0,0,3.6-19.6,42.8-24.3
			C227.3,202.5,229.9,204.5,230.4,207.6z"/>
		<path class="st0" d="M285.6,206.6L285.6,206.6c-0.5,3.1,2.1,5.7,5.2,5.7c10.8,0,33,1.5,43.9,12.4c0,0-4.1-19.6-43.4-23.2
			C288.7,201.5,285.6,203.5,285.6,206.6z"/>
		<path class="st7" d="M345,203c-26.3-2.1-95-23.2-157.4-45.9c0,0,5.7,64-31.5,96c0,0-0.5-3.1-2.6-6.7c-0.5-4.6-1-9.3-1.5-13.4
			c-6.7-59.9,39.7-112.5,99.6-113h5.2c44.4,0.5,81.6,29.4,95,69.2c1.5,4.6,3.1,9.8,3.6,14.5C355.8,203.5,352.2,203.5,345,203z"/>
		<path class="st7" d="M357.4,230.9c0,3.1-0.5,6.2-1,9.3c-8.3-4.6-10.8-24.8-11.4-37.2c-0.5-6.2,0-10.3,0-10.3s0.5-2.1,7.2-3.1
			c1.5,4.6,3.1,9.8,3.6,14.5C357.4,212.3,357.9,221.6,357.4,230.9z"/>
		<path class="st0" d="M284.6,252c0,0,4.6-15,18.1-16.5c13.4-1.5,20.6,11.9,20.6,11.9S303.7,233.5,284.6,252z"/>
	</g>
</g>
</svg>
