<?xml version="1.0" encoding="utf-8"?>
<!-- Generator: Adobe Illustrator 23.1.1, SVG Export Plug-In . SVG Version: 6.00 Build 0)  -->
<svg version="1.1" id="Layer_1" xmlns="http://www.w3.org/2000/svg" xmlns:xlink="http://www.w3.org/1999/xlink" x="0px" y="0px"
	 viewBox="0 0 900 580" style="enable-background:new 0 0 900 580;" xml:space="preserve">
<style type="text/css">
	.st0{fill:#2F3B55;}
	.st1{fill:#FFFFFF;}
	.st2{fill:#32324C;}
	.st3{fill:#FFA378;}
	.st4{fill:#F88968;}
	.st5{fill:#FFAF82;}
	.st6{fill:#32324C;stroke:#32324C;stroke-width:4;stroke-miterlimit:10;}
	.st7{fill:#32324C;stroke:#32324C;stroke-miterlimit:10;}
	.st8{fill:#920E08;}
	.st9{fill:#F85C66;}
</style>
<rect x="0" class="st0" width="900" height="580"/>
<path class="st1" d="M450,555.6L450,555.6c-110.1,0-200.2-90.1-200.2-200.2V224.6c0-110.1,90.1-200.2,200.2-200.2h0
	c110.1,0,200.2,90.1,200.2,200.2v130.7C650.2,465.5,560.1,555.6,450,555.6z"/>
<g id="OBJECTS">
	<g>
		<g>
			<path class="st2" d="M588.6,301.1c4.6,9.6,9.6,19.6,14.6,30c15.5,33.7-16.4,37.8-16.4,37.8s13.7,22.8,0.5,41
				c-13.7,18.2-35.5,8.6-35.5,8.6s-5.9,10-25.5,11.4c-28.2,1.8-40.5-9.6-40.5-9.6l-31-5.9c-3.6,2.3-13.2,10-36.9,12.7
				c-28.2,3.2-43.7-5.9-43.7-5.9c-5.5,15-41.4,12.3-49.2-11.4c-7.3-21.8,1.8-31,2.7-32.3c-16.4,13.2-52.8-22.3-25-56
				c11.4-13.7,17.8-20,21.4-26.9c-14.1,3.6-32.3-13.7-28.2-28.7c5.5-19.6,22.3-11.8,33.2-39.6c14.6-36.9,28.2-49.6,29.1-50.5l0,0
				c22.3-25,58.7-41.9,101.5-39.1c36.4,2.3,60.1,22.8,74.7,37.8c12.3,13.2,20,29.6,23.2,46c0.5,3.6,1.4,6.8,2.3,10.5
				c6.8,12.3,20.5,34.1,33.7,40.5C612.3,281,606.3,304.7,588.6,301.1z"/>
		</g>
		<g>
			<g>
				<g>
					<g>
						<path class="st3" d="M379.2,286c0,0-16.8-16.4-30-5.9c-15.9,12.7,0.9,58.3,28.7,53.7L379.2,286z"/>
					</g>
				</g>
			</g>
			<path class="st1" d="M370.5,331.6c0,4.6-3.6,8.2-8.2,8.2c-4.6,0-8.2-3.6-8.2-8.2c0-4.6,3.6-8.2,8.2-8.2
				C366.9,323.4,370.5,327,370.5,331.6z"/>
			<g>
				<path class="st4" d="M374.6,318.8c-2.3-6.8-8.6-20.9-24.6-27.3c0,0,16.8,15.9,18.2,28.7c0,1.8,1.4,2.7,3.2,2.7h0.5
					C374.2,322.5,375.6,320.6,374.6,318.8z"/>
			</g>
		</g>
		<g>
			<g>
				<g>
					<g>
						<path class="st3" d="M521.2,286c0,0,16.8-16.4,30-5.9c15.9,12.7-0.9,58.3-28.7,53.7L521.2,286z"/>
					</g>
				</g>
			</g>
			<path class="st1" d="M549,331.6c0,4.6-3.6,8.2-8.2,8.2c-4.6,0-8.2-3.6-8.2-8.2c0-4.6,3.6-8.2,8.2-8.2
				C545.3,323.4,549,327,549,331.6z"/>
			<g>
				<path class="st4" d="M525.8,318.8c2.3-6.8,8.6-20.9,24.6-27.3c0,0-16.8,15.9-18.2,28.7c0,1.8-1.4,2.7-3.2,2.7h-0.5
					C526.7,322.5,525.3,320.6,525.8,318.8z"/>
			</g>
		</g>
		<g>
			<g>
				<path class="st5" d="M487.1,383.5l-1.4,21.8l-1.4,27.8c0,0-5.5,10.5-30,10.5s-30-7.3-30-7.3l-0.9-12.3l-3.2-41h66.9V383.5z"/>
			</g>
			<g>
				<path class="st4" d="M487.1,383.5l-1.4,21.8c-10.5,7.7-34.6,22.8-62.8,18.7l-3.2-41h67.4V383.5z"/>
			</g>
		</g>
		<path class="st5" d="M540.8,268.8c0,2.7-0.5,5.5-0.9,8.2c-5.9,56.4-23.2,128.4-86,128.4c-61,0-85.1-67.8-92.9-122.9
			c-0.5-4.1-0.9-8.2-1.4-11.8c-5.9-52.8,35.1-99.2,87.9-99.7h4.6c39.1,0.5,71.9,25.9,83.8,61c1.4,4.1,2.7,8.6,3.2,12.7
			C540.8,252.4,541.2,260.6,540.8,268.8z"/>
		<g>
			<path class="st4" d="M453.4,378c-7.7-0.9-13.2-4.1-13.7-4.1c-0.9-0.5-1.4-2.3-0.9-3.2c0.5-0.9,2.3-1.4,3.2-0.9
				c0.5,0.5,15.9,8.6,30-0.5c0.9-0.9,2.7-0.5,3.2,0.9c0.9,0.9,0.5,2.7-0.9,3.2C467.1,378,459.8,378.5,453.4,378z"/>
		</g>
		<g>
			<path class="st4" d="M460.7,323.4h-12.3c-1.4,0-2.3-0.9-2.3-2.3s0.9-2.3,2.3-2.3h12.3c0.5,0,0.5,0,0.5,0v-0.5l-10-34.6
				c-0.5-1.4,0.5-2.7,1.8-3.2s2.7,0.5,3.2,1.8l10,34.6c0.5,1.8,0,3.6-0.9,5C463.9,322.9,462.5,323.4,460.7,323.4z"/>
		</g>
		<path class="st2" d="M428.8,249.6L428.8,249.6c0.5,2.7-1.8,5.5-4.6,5.5c-9.6,0.5-29.1,1.8-38.2,12.3c0,0,3.2-17.3,37.8-21.4
			C426.1,245.1,428.4,247.4,428.8,249.6z"/>
		<path class="st2" d="M477.5,248.7L477.5,248.7c-0.5,2.7,1.8,5,4.6,5c9.6,0,29.1,1.4,38.7,10.9c0,0-3.6-17.3-38.2-20.5
			C480.3,244.2,477.5,246,477.5,248.7z"/>
		<path class="st6" d="M529.9,244.2c-23.2-2.3-83.8-20.9-138.8-41c0,0,5,56.4-27.8,84.7c0,0-0.5-2.7-2.3-5.9
			c-0.5-4.1-0.9-8.2-1.4-11.8c-5.9-52.3,35.1-98.8,87.9-99.2h4.6c39.1,0.5,71.9,25.9,83.8,61c1.4,4.1,2.7,8.6,3.2,12.7
			C539.4,244.6,536.2,244.6,529.9,244.2z"/>
		<path class="st7" d="M540.8,268.8c0,2.7-0.5,5.5-0.9,8.2c-7.3-4.1-9.6-21.8-10-32.8c-0.5-5.5,0-9.1,0-9.1s0.5-1.8,6.4-2.7
			c1.4,4.1,2.7,8.6,3.2,12.7C540.8,252.4,541.2,260.6,540.8,268.8z"/>
		<g>
			<path class="st8" d="M496.2,339.3c0,0-0.9,2.7-3.2,5.9c-2.7,4.6-7.3,10.5-14.6,15c-0.9,0.5-1.8,0.9-2.7,1.4
				c-5,2.7-11.4,4.1-19.1,4.1c-6.8,0-12.7-1.4-17.8-3.2c-0.9-0.5-1.8-0.9-2.3-0.9c-7.3-3.6-12.3-9.1-15-13.7
				c-2.3-3.6-3.6-6.8-3.6-6.8s1.4,0.5,3.2,1.4c5.5,2.3,18.2,6.8,35.1,6.8c0.5,0,0.5,0,0.9,0h0.9c15.9-0.5,29.1-5.5,35.1-8.2
				C494.8,340.2,496.2,339.3,496.2,339.3z"/>
			<path class="st9" d="M476.2,361.6c-5,2.7-11.4,4.1-19.1,4.1c-6.8,0-12.7-1.4-17.8-3.2c4.1-1.8,10-3.6,19.1-3.6
				C465.7,358.9,471.6,360.2,476.2,361.6z"/>
			<path class="st1" d="M496.2,339.3c0,0-0.9,2.7-3.2,5.9c-5.9,3.2-17.8,8.6-35.5,8.6c-18.2,0-31-3.6-36.4-5.9
				c-2.3-3.6-3.6-6.8-3.6-6.8s1.4,0.5,3.2,1.4c5.5,2.3,18.2,6.8,35.1,6.8c0.5,0,0.5,0,0.9,0h0.9c15.9-0.5,29.1-5.5,35.1-8.2
				C494.8,340.2,496.2,339.3,496.2,339.3z"/>
		</g>
		<path class="st2" d="M476.2,288.3c0,0,3.6-14.6,18.7-14.6c13.2,0,18.7,10.9,18.7,19.1c0,0-7.3-15-20-13.7
			C483.9,280.1,476.2,288.3,476.2,288.3z"/>
		<path class="st2" d="M432.9,288.3c0,0-3.6-14.6-18.7-14.6c-13.2,0-18.7,10.9-18.7,19.1c0,0,7.3-15,20-13.7
			C424.7,280.1,432.9,288.3,432.9,288.3z"/>
	</g>
</g>
<g id="DESIGNED_BY_FREEPIK">
</g>
</svg>
