<?xml version="1.0" encoding="utf-8"?>
<!-- Generator: Adobe Illustrator 23.1.1, SVG Export Plug-In . SVG Version: 6.00 Build 0)  -->
<svg version="1.1" xmlns="http://www.w3.org/2000/svg" xmlns:xlink="http://www.w3.org/1999/xlink" x="0px" y="0px"
	 viewBox="0 0 69.1 67.4" style="enable-background:new 0 0 69.1 67.4;" xml:space="preserve">
<style type="text/css">
	.st0{fill:#32324C;}
	.st1{fill:#F88968;}
	.st2{fill:#FFFFFF;}
	.st3{fill:#FFAF82;}
	.st4{fill:#920E08;}
	.st5{fill:#F85C66;}
	.st6{fill:url(#SVGID_1_);}
	.st7{fill:#E2E2E2;}
	.st8{fill:#D9F2FF;}
	.st9{fill:#FFA378;}
	.st10{fill:#32324C;stroke:#32324C;stroke-width:0.5;stroke-miterlimit:10;}
	.st11{fill:url(#SVGID_2_);}
</style>
<g id="OBJECTS">
	<g>
		<g>
			<path class="st0" d="M65,36.1c1,2.1,2.1,4.3,3.2,6.6c3.4,7.4-3.6,8.3-3.6,8.3s3,5,0.1,9c-3,4-7.8,1.9-7.8,1.9s-1.3,2.2-5.6,2.5
				c-6.2,0.4-8.9-2.1-8.9-2.1L35.6,61c-0.8,0.5-2.9,2.1-8.1,2.8c-4.7,0.6-8.5-1.9-8.5-1.9C17.9,65.2,8.8,65.2,7.1,60
				c-1.6-4.8,0.4-6.8,0.6-7.1c-3.6,2.9-11.6-4.9-5.5-12.3c2.5-3,3.9-4.4,4.7-5.9c-3.1,0.8-7.1-3-6.2-6.3c1.2-4.3,4.9-2.6,7.3-8.7
				c3.2-8.1,6.2-10.9,6.4-11.1c0,0,0,0,0,0c4.9-5.5,12.9-9.2,22.3-8.6c8,0.5,13.2,5,16.4,8.3c2.7,2.9,4.4,6.5,5.1,10.1
				c0.1,0.8,0.3,1.5,0.5,2.3c1.5,2.7,4.5,7.5,7.4,8.9C70.2,31.7,68.9,36.9,65,36.1z"/>
		</g>
		<g>
			<g>
				<g>
					<g>
						<path class="st9" d="M19,32.8c0,0-3.7-3.6-6.6-1.3c-3.5,2.8,0.2,12.8,6.3,11.8L19,32.8z"/>
					</g>
				</g>
			</g>
			<path class="st2" d="M17.1,42.8c0,1-0.8,1.8-1.8,1.8c-1,0-1.8-0.8-1.8-1.8c0-1,0.8-1.8,1.8-1.8C16.3,41,17.1,41.8,17.1,42.8z"/>
			<g>
				<path class="st1" d="M18,40c-0.5-1.5-1.9-4.6-5.4-6c0,0,3.7,3.5,4,6.3c0,0.4,0.3,0.6,0.7,0.6l0.1,0C17.9,40.8,18.2,40.4,18,40z"
					/>
			</g>
		</g>
		<g>
			<g>
				<g>
					<g>
						<path class="st9" d="M50.2,32.8c0,0,3.7-3.6,6.6-1.3c3.5,2.8-0.2,12.8-6.3,11.8L50.2,32.8z"/>
					</g>
				</g>
			</g>
			<path class="st2" d="M56.3,42.8c0,1-0.8,1.8-1.8,1.8c-1,0-1.8-0.8-1.8-1.8c0-1,0.8-1.8,1.8-1.8C55.5,41,56.3,41.8,56.3,42.8z"/>
			<g>
				<path class="st1" d="M51.2,40c0.5-1.5,1.9-4.6,5.4-6c0,0-3.7,3.5-4,6.3c0,0.4-0.3,0.6-0.7,0.6l-0.1,0
					C51.4,40.8,51.1,40.4,51.2,40z"/>
			</g>
		</g>
		<g>
			<g>
				<path class="st3" d="M42.7,54.2l-0.3,4.8l-0.3,6.1c0,0-1.2,2.3-6.6,2.3c-5.4,0-6.6-1.6-6.6-1.6l-0.2-2.7l-0.7-9H42.7z"/>
			</g>
			<g>
				<path class="st1" d="M42.7,54.2l-0.3,4.8c-2.3,1.7-7.6,5-13.8,4.1l-0.7-9H42.7z"/>
			</g>
		</g>
		<path class="st3" d="M54.5,29c0,0.6-0.1,1.2-0.2,1.8C53,43.2,49.2,59,35.4,59C22,59,16.7,44.1,15,32c-0.1-0.9-0.2-1.8-0.3-2.6
			C13.4,17.8,22.4,7.6,34,7.5h1c8.6,0.1,15.8,5.7,18.4,13.4c0.3,0.9,0.6,1.9,0.7,2.8C54.5,25.4,54.6,27.2,54.5,29z"/>
		<g>
			<g>
				<g>
					<path class="st0" d="M27,34.2c-1.2,0.2-2.4-0.7-2.5-1.9c-0.1-0.4,0-0.9,0.2-1.2c-1.8-0.2-1.8-1.3-1.8-1.3
						c0.3,0.5,2.4,0.2,3.3,0.1h0c0.1,0,0.2,0,0.3,0c0,0,0,0,0,0c0,0,0.1,0,0.1,0c1.2-0.1,2.2,0.8,2.4,1.9C29.1,32.9,28.2,34,27,34.2
						z"/>
				</g>
			</g>
		</g>
		<g>
			<path class="st1" d="M35.3,53.6c-1.7-0.2-2.9-0.9-3-0.9c-0.2-0.1-0.3-0.5-0.2-0.7c0.1-0.2,0.5-0.3,0.7-0.2
				c0.1,0.1,3.5,1.9,6.6-0.1c0.2-0.2,0.6-0.1,0.7,0.2c0.2,0.2,0.1,0.6-0.2,0.7C38.3,53.5,36.7,53.7,35.3,53.6z"/>
		</g>
		<g>
			<path class="st1" d="M36.9,41h-2.7c-0.3,0-0.5-0.2-0.5-0.5c0-0.3,0.2-0.5,0.5-0.5h2.7c0.1,0,0.1,0,0.1,0c0,0,0-0.1,0-0.1
				l-2.2-7.6c-0.1-0.3,0.1-0.6,0.4-0.7c0.3-0.1,0.6,0.1,0.7,0.4l2.2,7.6c0.1,0.4,0,0.8-0.2,1.1C37.6,40.9,37.3,41,36.9,41z"/>
		</g>
		<path class="st0" d="M29.9,24.1L29.9,24.1c0.1,0.6-0.4,1.2-1,1.2c-2.1,0.1-6.4,0.4-8.4,2.7c0,0,0.7-3.8,8.3-4.7
			C29.3,23.2,29.8,23.6,29.9,24.1z"/>
		<path class="st0" d="M40.6,23.9L40.6,23.9c-0.1,0.6,0.4,1.1,1,1.1c2.1,0,6.4,0.3,8.5,2.4c0,0-0.8-3.8-8.4-4.5
			C41.2,22.9,40.6,23.3,40.6,23.9z"/>
		<g>
			<g>
				<g>
					<path class="st0" d="M43.1,33.9c1.2,0.2,2.4-0.7,2.5-1.9c0.1-0.4,0-0.9-0.2-1.2c1.8-0.2,1.8-1.3,1.8-1.3
						c-0.3,0.5-2.4,0.2-3.3,0.1h0c-0.1,0-0.2,0-0.3,0c0,0,0,0,0,0c0,0-0.1,0-0.1,0c-1.2-0.1-2.2,0.8-2.4,1.9
						C41,32.6,41.8,33.7,43.1,33.9z"/>
				</g>
			</g>
		</g>
		<g>
			<path class="st4" d="M43.1,43.8c0,0.4,0,0.9-0.1,1.3c-0.2,1.4-0.8,2.6-1.7,3.6c-1.3,1.4-3.2,2.4-5.2,2.4c-2.1,0-4-0.8-5.3-2.2
				c-0.9-1-1.6-2.2-1.8-3.6c-0.1-0.4-0.1-0.8-0.1-1.3c0,0,0,0,0-0.1L43.1,43.8C43.1,43.8,43.1,43.8,43.1,43.8z"/>
			<path class="st2" d="M43.1,43.8c0,0.4,0,0.9-0.1,1.3l-14.1,0.2c-0.1-0.4-0.1-0.8-0.1-1.3c0,0,0,0,0-0.1L43.1,43.8
				C43.1,43.8,43.1,43.8,43.1,43.8z"/>
			<path class="st5" d="M41.3,48.7c-1.3,1.4-3.2,2.4-5.2,2.4c-2.1,0-4-0.8-5.3-2.2c1.2-1.3,3.1-2.1,5.3-2.1
				C38.1,46.7,40,47.5,41.3,48.7z"/>
		</g>
		<path class="st10" d="M52.1,23.6C47,23.1,33.7,19,21.6,14.6c0,0,1.1,12.4-6.1,18.6c0,0-0.1-0.6-0.5-1.3c-0.1-0.9-0.2-1.8-0.3-2.6
			C13.4,17.8,22.4,7.6,34,7.5h1c8.6,0.1,15.8,5.7,18.4,13.4c0.3,0.9,0.6,1.9,0.7,2.8C54.2,23.7,53.5,23.7,52.1,23.6z"/>
		<path class="st0" d="M54.5,29c0,0.6-0.1,1.2-0.2,1.8c-1.6-0.9-2.1-4.8-2.2-7.2c-0.1-1.2,0-2,0-2s0.1-0.4,1.4-0.6
			c0.3,0.9,0.6,1.9,0.7,2.8C54.5,25.4,54.6,27.2,54.5,29z"/>
	</g>
</g>
<g id="DESIGNED_BY_FREEPIK">
</g>
</svg>
