<?xml version="1.0" encoding="utf-8"?>
<!-- Generator: Adobe Illustrator 23.1.1, SVG Export Plug-In . SVG Version: 6.00 Build 0)  -->
<svg version="1.1" xmlns="http://www.w3.org/2000/svg" xmlns:xlink="http://www.w3.org/1999/xlink" x="0px" y="0px"
	 viewBox="0 0 71.8 70.6" style="enable-background:new 0 0 71.8 70.6;" xml:space="preserve">
<style type="text/css">
	.st0{fill:#32324C;}
	.st1{fill:#F88968;}
	.st2{fill:#FFFFFF;}
	.st3{fill:#FFAF82;}
	.st4{fill:#920E08;}
	.st5{fill:#F85C66;}
	.st6{fill:url(#SVGID_1_);}
	.st7{fill:#E2E2E2;}
	.st8{fill:#D9F2FF;}
	.st9{fill:#FFA378;}
	.st10{fill:#32324C;stroke:#32324C;stroke-width:0.5;stroke-miterlimit:10;}
	.st11{fill:url(#SVGID_2_);}
</style>
<g id="OBJECTS">
	<g>
		<g>
			<path class="st0" d="M67.6,35.4c0.7,2.1,1.5,4.4,2.2,6.7c2.3,7.5-4.9,8.4-4.9,8.4s2.3,5.1-1.3,9.2c-3.6,4.1-8.2,1.9-8.2,1.9
				s-1.7,2.2-6.1,2.5c-6.4,0.4-8.7-2.2-8.7-2.2L34,60.7c-0.9,0.5-1.6,3.7-8.6,4.6c-6.4,0.7-9.7-3.1-9.7-3.1
				c-1.7,3.3-9.6,2.7-10.5-2.5c-0.8-4.9,1.4-6.9,1.7-7.2c-4.1,2.9-11-5-3.7-12.5c3-3,4.6-4.5,5.7-6c-3.3,0.8-6.8-3.1-5.3-6.4
				c1.9-4.3,5.4-2.6,8.8-8.8c4.5-8.3,8-11.1,8.2-11.2c0,0,0,0,0,0C26.5,2,35.1-0.5,44.6,0.1c8,0.5,12.7,3.8,15.4,7.2
				c2.3,2.9,3.5,6.6,3.6,10.3c0,0.8,0.1,1.6,0.1,2.3c1.1,2.7,3.4,7.6,6.1,9C73.6,30.9,71.5,36.2,67.6,35.4z"/>
		</g>
		<g>
			<g>
				<g>
					<g>
						<path class="st1" d="M56.3,30c0,0,4.2-4.8,7.6-0.6c3,3.6,1.1,13.3-6.2,13L56.3,30z"/>
					</g>
				</g>
				<path class="st2" d="M62.8,41.8c0,1-0.8,1.7-1.7,1.7c-1,0-1.7-0.8-1.7-1.7c0-1,0.8-1.7,1.7-1.7C62,40.1,62.8,40.8,62.8,41.8z"/>
				<g>
					<g>
						<path class="st3" d="M48.8,66.4c-0.4,4.4-9.4,6.9-14.5-0.5l-0.5-9.6l-0.4-7l16.5,3.2L49,63.6L48.8,66.4z"/>
					</g>
					<g>
						<path class="st1" d="M48.9,64.9c-5.6,0.1-11.9-3.8-15-6.5l-0.5-9.1l16.5,3.2L48.9,64.9z"/>
					</g>
				</g>
				<g>
					<path class="st3" d="M42.5,57.6C25.2,53.7,22,30.9,22,30.9s-0.1-1.5,0.2-3.7c0.2-1.2,0.4-2.6,0.8-4.2c1.2-4.4,3.9-9.4,9.6-11.5
						c0.2-0.1,0.4-0.1,0.5-0.2C42.7,7.9,56.6,9.5,60.8,22c0.2,0.7,0.5,1.6,0.6,2.4c0.1,0.5,0.2,1,0.3,1.5
						C63.6,38.9,58.1,61.2,42.5,57.6z"/>
				</g>
				<g>
					<path class="st1" d="M48.9,48.7c1.7,0.3,2.9,1,2.9,1c0.2,0.1,0.3,0.5,0.2,0.7c-0.2,0.2-0.5,0.3-0.7,0.2
						c-0.1-0.1-3.3-2.1-6.6-0.2c-0.2,0.1-0.6,0.1-0.7-0.2c-0.1-0.2-0.1-0.6,0.2-0.7C45.9,48.6,47.5,48.5,48.9,48.7z"/>
				</g>
				<path class="st1" d="M41.5,48.6c0,0,2.3-4.1,7.5-3.6c4.1,0.4,4.5,3.8,4.5,3.8S49.6,43.5,41.5,48.6z"/>
				<g>
					<path class="st3" d="M25,31.4c0,0-6.2-3.4-8.2,2.3c-1.8,5,3.9,14.4,11.5,11.3L25,31.4z"/>
				</g>
				<g>
					<path class="st1" d="M25.4,40.8c-0.5-1.6-2.1-5-5.9-6.5c0,0,4.1,3.8,4.4,6.8c0,0.4,0.4,0.7,0.8,0.7l0.1,0
						C25.2,41.8,25.5,41.3,25.4,40.8z"/>
				</g>
				<g>
					<path class="st1" d="M48.5,41.9h-2.6c-0.3,0-0.5-0.2-0.5-0.5c0-0.3,0.2-0.5,0.5-0.5h2.6c0.1,0,0.1,0,0.1,0c0,0,0-0.1,0-0.1
						l-2.2-7.5c-0.1-0.3,0.1-0.6,0.4-0.7c0.3-0.1,0.6,0.1,0.7,0.4l2.2,7.5c0.1,0.4,0,0.8-0.2,1.1C49.2,41.7,48.9,41.9,48.5,41.9z"/>
				</g>
				<path class="st0" d="M40,23.4L40,23.4c0.2,0.6-0.1,1.2-0.7,1.4c-1.9,0.6-5.9,2.1-7.4,4.7c0,0-0.3-3.8,6.6-6.7
					C39.2,22.6,39.8,22.9,40,23.4z"/>
				<path class="st0" d="M50,22.8L50,22.8c-0.1,0.6,0.3,1.2,0.9,1.2c2,0.2,6.2,1,8.1,3.4c0,0-0.3-3.8-7.7-5.4
					C50.6,21.9,50.1,22.3,50,22.8z"/>
				<path class="st0" d="M34.2,12.5c0,0-0.9,15.2-8,21.4c0,0-0.6-4-6.1-3.4c0,0-0.5-0.9-1.3-5.5S20.9,1.4,41.9,2.6
					c0,0,6.7-1.4,16,6.6c9.3,8,3.8,16.7,3.8,16.7S46.1,23.8,34.2,12.5z"/>
				<path class="st2" d="M25.5,45.7c0,1-0.8,1.7-1.7,1.7c-1,0-1.7-0.8-1.7-1.7c0-1,0.8-1.7,1.7-1.7C24.7,43.9,25.5,44.7,25.5,45.7z"
					/>
			</g>
			<path class="st8" d="M36.3,33c0,0-1.2,2.4-2.6,7.3c-1.4,4.9-1.8,10.6-0.6,12.7c0,0-1.4-0.6-1.8-2.2c-0.4-1.6,0.6-7.9,1.6-11.3
				c1-3.3,2.3-7.1,2.3-7.1C35.6,32.5,36.2,32.7,36.3,33z"/>
			<path class="st8" d="M59.1,47c0.2-0.1,0.6-0.6,0.6-1.6c0-2.3-0.1-3.5-0.4-6.1c-0.4-3.5-1.9-8.6-1.9-8.6c-0.4,0.1-1,0.3-1,0.6
				c0,0,1.3,2.9,2.1,7.9C59,42.3,58.9,44.8,59.1,47z"/>
			<path class="st0" d="M33.9,31.3c0,0,2.1,2.6,4.5,1.9c3.6-1,3.3-5,3.3-5S40.3,34.6,33.9,31.3z"/>
			<path class="st0" d="M58.4,29.5c0,0-1.5,3-4,2.9c-3.7-0.2-4.3-4.1-4.3-4.1S53,34.2,58.4,29.5z"/>
		</g>
	</g>
</g>
<g id="DESIGNED_BY_FREEPIK">
</g>
</svg>
