<?xml version="1.0" encoding="utf-8"?>
<!-- Generator: Adobe Illustrator 23.1.1, SVG Export Plug-In . SVG Version: 6.00 Build 0)  -->
<svg version="1.1" xmlns="http://www.w3.org/2000/svg" xmlns:xlink="http://www.w3.org/1999/xlink" x="0px" y="0px"
	 viewBox="0 0 72.6 71.3" style="enable-background:new 0 0 72.6 71.3;" xml:space="preserve">
<style type="text/css">
	.st0{fill:#32324C;}
	.st1{fill:#F88968;}
	.st2{fill:#FFFFFF;}
	.st3{fill:#FFAF82;}
	.st4{fill:#920E08;}
	.st5{fill:#F85C66;}
	.st6{fill:url(#SVGID_1_);}
	.st7{fill:#E2E2E2;}
	.st8{fill:#D9F2FF;}
	.st9{fill:#FFA378;}
	.st10{fill:#32324C;stroke:#32324C;stroke-width:0.5;stroke-miterlimit:10;}
	.st11{fill:url(#SVGID_2_);}
	.st12{font-family:'MyriadPro-Regular';}
	.st13{font-size:12px;}
</style>
<g id="OBJECTS">
	<g>
		<g>
			<path class="st0" d="M68.4,35.8c0.7,2.2,1.5,4.4,2.2,6.8c2.3,7.6-5,8.5-5,8.5s2.3,5.2-1.3,9.3c-3.7,4.1-8.3,1.9-8.3,1.9
				s-1.7,2.2-6.1,2.5c-6.4,0.4-8.8-2.2-8.8-2.2l-6.7-1.2c-0.9,0.5-1.6,3.8-8.7,4.6c-6.5,0.8-9.8-3.1-9.8-3.1
				c-1.7,3.3-9.7,2.8-10.7-2.5c-0.9-5,1.5-7,1.7-7.2c-4.2,3-11.1-5-3.8-12.6c3-3.1,4.7-4.5,5.8-6.1c-3.3,0.8-6.8-3.1-5.3-6.5
				c1.9-4.4,5.5-2.6,8.9-8.9c4.6-8.3,8.1-11.2,8.3-11.4c0,0,0,0,0,0C26.8,2.1,35.5-0.5,45,0.1c8.1,0.5,12.9,3.8,15.6,7.2
				c2.4,2.9,3.6,6.6,3.6,10.4c0,0.8,0.1,1.6,0.1,2.3c1.1,2.8,3.5,7.7,6.2,9.1C74.4,31.2,72.3,36.6,68.4,35.8z"/>
		</g>
		<g>
			<g>
				<g>
					<g>
						<path class="st1" d="M56.9,30.4c0,0,4.2-4.8,7.6-0.6c3,3.7,1.1,13.4-6.2,13.1L56.9,30.4z"/>
					</g>
				</g>
				<path class="st2" d="M63.5,42.3c0,1-0.8,1.8-1.8,1.8c-1,0-1.8-0.8-1.8-1.8c0-1,0.8-1.8,1.8-1.8C62.7,40.5,63.5,41.3,63.5,42.3z"
					/>
				<g>
					<g>
						<path class="st3" d="M49.3,67.1c-0.4,4.4-9.5,7-14.7-0.5L34.1,57l-0.4-7.1l16.6,3.2l-0.8,11.2L49.3,67.1z"/>
					</g>
					<g>
						<path class="st1" d="M49.4,65.6c-5.7,0.1-12-3.8-15.2-6.5l-0.5-9.2l16.6,3.2L49.4,65.6z"/>
					</g>
				</g>
				<g>
					<path class="st3" d="M43,58.3c-17.6-4-20.7-27-20.7-27s-0.1-1.5,0.2-3.8c0.2-1.2,0.4-2.7,0.9-4.2c1.3-4.4,4-9.5,9.7-11.7
						c0.2-0.1,0.4-0.1,0.5-0.2C43.2,8,57.2,9.6,61.4,22.3c0.3,0.8,0.5,1.6,0.6,2.5c0.1,0.5,0.2,1,0.3,1.6
						C64.3,39.4,58.8,61.9,43,58.3z"/>
				</g>
				<g>
					<g>
						<g>
							<path class="st0" d="M39.5,34.8c-1.2,0.2-2.4-0.7-2.5-1.9c-0.1-0.4,0-0.9,0.2-1.2c-1.8-0.2-1.8-1.3-1.8-1.3
								c0.3,0.5,2.4,0.2,3.3,0.1h0c0.1,0,0.2,0,0.3,0c0,0,0,0,0,0c0,0,0.1,0,0.1,0c1.2-0.1,2.2,0.8,2.4,1.9
								C41.6,33.4,40.7,34.6,39.5,34.8z"/>
						</g>
					</g>
				</g>
				<g>
					<path class="st3" d="M25.3,31.7c0,0-6.3-3.5-8.3,2.3c-1.8,5,4,14.6,11.6,11.5L25.3,31.7z"/>
				</g>
				<g>
					<path class="st1" d="M25.6,41.3c-0.5-1.7-2.1-5.1-6-6.6c0,0,4.1,3.9,4.4,6.9c0,0.4,0.4,0.7,0.8,0.7l0.1,0
						C25.5,42.2,25.8,41.8,25.6,41.3z"/>
				</g>
				<g>
					<path class="st1" d="M49,42.3h-2.7c-0.3,0-0.5-0.2-0.5-0.5c0-0.3,0.2-0.5,0.5-0.5H49c0.1,0,0.1,0,0.1,0c0,0,0-0.1,0-0.1
						l-2.2-7.6c-0.1-0.3,0.1-0.6,0.4-0.7c0.3-0.1,0.6,0.1,0.7,0.4l2.2,7.6c0.1,0.4,0,0.8-0.2,1.1C49.8,42.2,49.4,42.3,49,42.3z"/>
				</g>
				<path class="st0" d="M42.3,25.5L42.3,25.5c0.1,0.6-0.3,1.2-0.9,1.2c-2,0.2-6.3,0.9-8.2,3.2c0,0,0.4-3.8,7.9-5.3
					C41.6,24.6,42.2,24.9,42.3,25.5z"/>
				<path class="st0" d="M50.7,25.5L50.7,25.5c0,0.6,0.5,1.1,1.1,1.1c2.1-0.2,6.4-0.2,8.7,1.8c0,0-1.1-3.7-8.7-3.8
					C51.2,24.4,50.8,24.9,50.7,25.5z"/>
				<g>
					<g>
						<g>
							<path class="st0" d="M54.4,34.5c1.2,0.2,2.4-0.7,2.5-1.9c0.1-0.4,0-0.9-0.2-1.2c1.8-0.2,1.8-1.3,1.8-1.3
								c-0.3,0.5-2.4,0.2-3.3,0.1h0c-0.1,0-0.2,0-0.3,0c0,0,0,0,0,0c0,0-0.1,0-0.1,0c-1.2-0.1-2.2,0.8-2.4,1.9
								C52.3,33.2,53.1,34.3,54.4,34.5z"/>
						</g>
					</g>
				</g>
				<path class="st0" d="M34.6,12.6c0,0-0.9,15.4-8.1,21.6c0,0-0.6-4.1-6.2-3.5c0,0-0.5-1-1.3-5.6c-0.8-4.6,2.1-23.8,23.3-22.5
					c0,0,6.7-1.4,16.2,6.7c9.4,8.1,3.8,16.9,3.8,16.9S46.6,24.1,34.6,12.6z"/>
				<circle class="st2" cx="24" cy="46.2" r="1.8"/>
				<path class="st1" d="M41.9,52.8c-0.2,0-0.3-0.1-0.4-0.2c-0.1-0.2-0.1-0.5,0.2-0.7c0.2-0.1,5.6-3.3,11-2.6c0.3,0,0.5,0.3,0.4,0.6
					c0,0.3-0.3,0.5-0.6,0.4c-5.1-0.6-10.3,2.5-10.4,2.5C42,52.8,42,52.8,41.9,52.8z"/>
			</g>
		</g>
	</g>
	<text transform="matrix(0.9689 -0.2476 0.2476 0.9689 6.9513 16.2893)" class="st0 st12 st13">?!!</text>
</g>
<g id="DESIGNED_BY_FREEPIK">
</g>
</svg>
