<?xml version="1.0" encoding="utf-8"?>
<!-- Generator: Adobe Illustrator 23.1.1, SVG Export Plug-In . SVG Version: 6.00 Build 0)  -->
<svg version="1.1" id="Layer_1" xmlns="http://www.w3.org/2000/svg" xmlns:xlink="http://www.w3.org/1999/xlink" x="0px" y="0px"
	 viewBox="0 0 69.1 67.4" style="enable-background:new 0 0 69.1 67.4;" xml:space="preserve">
<style type="text/css">
	.st0{fill:#32324C;}
	.st1{fill:#FFA378;}
	.st2{fill:#FFFFFF;}
	.st3{fill:#F88968;}
	.st4{fill:#FFAF82;}
	.st5{fill:#920E08;}
	.st6{fill:#E2E2E2;}
	.st7{fill:#32324C;stroke:#32324C;stroke-width:0.5;stroke-miterlimit:10;}
</style>
<g id="OBJECTS">
	<g>
		<g>
			<path class="st0" d="M65,36.1c1,2.1,2.1,4.3,3.2,6.6c3.4,7.4-3.6,8.3-3.6,8.3s3,5,0.1,9c-3,4-7.8,1.9-7.8,1.9s-1.3,2.2-5.6,2.5
				c-6.2,0.4-8.9-2.1-8.9-2.1L35.6,61c-0.8,0.5-2.9,2.2-8.1,2.8c-6.2,0.7-9.6-1.3-9.6-1.3c-1.2,3.3-9.1,2.7-10.8-2.5
				c-1.6-4.8,0.4-6.8,0.6-7.1C4.1,55.8-3.9,48,2.2,40.6c2.5-3,3.9-4.4,4.7-5.9c-3.1,0.8-7.1-3-6.2-6.3c1.2-4.3,4.9-2.6,7.3-8.7
				c3.2-8.1,6.2-10.9,6.4-11.1l0,0C19.3,3.1,27.3-0.6,36.7,0c8,0.5,13.2,5,16.4,8.3c2.7,2.9,4.4,6.5,5.1,10.1
				c0.1,0.8,0.3,1.5,0.5,2.3c1.5,2.7,4.5,7.5,7.4,8.9C70.2,31.7,68.9,36.9,65,36.1z"/>
		</g>
		<g>
			<g>
				<g>
					<g>
						<path class="st1" d="M18.2,32.8c0,0-3.7-3.6-6.6-1.3c-3.5,2.8,0.2,12.8,6.3,11.8L18.2,32.8z"/>
					</g>
				</g>
			</g>
			<path class="st2" d="M16.3,42.8c0,1-0.8,1.8-1.8,1.8s-1.8-0.8-1.8-1.8s0.8-1.8,1.8-1.8S16.3,41.8,16.3,42.8z"/>
			<g>
				<path class="st3" d="M17.2,40c-0.5-1.5-1.9-4.6-5.4-6c0,0,3.7,3.5,4,6.3c0,0.4,0.3,0.6,0.7,0.6h0.1C17.1,40.8,17.4,40.4,17.2,40
					z"/>
			</g>
		</g>
		<g>
			<g>
				<g>
					<g>
						<path class="st1" d="M49.4,32.8c0,0,3.7-3.6,6.6-1.3c3.5,2.8-0.2,12.8-6.3,11.8L49.4,32.8z"/>
					</g>
				</g>
			</g>
			<path class="st2" d="M55.5,42.8c0,1-0.8,1.8-1.8,1.8s-1.8-0.8-1.8-1.8s0.8-1.8,1.8-1.8S55.5,41.8,55.5,42.8z"/>
			<g>
				<path class="st3" d="M50.4,40c0.5-1.5,1.9-4.6,5.4-6c0,0-3.7,3.5-4,6.3c0,0.4-0.3,0.6-0.7,0.6H51C50.6,40.8,50.3,40.4,50.4,40z"
					/>
			</g>
		</g>
		<g>
			<g>
				<path class="st4" d="M41.9,54.2L41.6,59l-0.3,6.1c0,0-1.2,2.3-6.6,2.3s-6.6-1.6-6.6-1.6l-0.2-2.7l-0.7-9L41.9,54.2L41.9,54.2z"
					/>
			</g>
			<g>
				<path class="st3" d="M41.9,54.2L41.6,59c-2.3,1.7-7.6,5-13.8,4.1l-0.7-9h14.8V54.2z"/>
			</g>
		</g>
		<path class="st4" d="M53.7,29c0,0.6-0.1,1.2-0.2,1.8C52.2,43.2,48.4,59,34.6,59c-13.4,0-18.7-14.9-20.5-27
			c-0.1-0.9-0.2-1.8-0.3-2.6C12.6,17.8,21.6,7.6,33.2,7.5h1c8.6,0.1,15.8,5.7,18.4,13.4c0.3,0.9,0.6,1.9,0.7,2.8
			C53.7,25.4,53.8,27.2,53.7,29z"/>
		<g>
			<path class="st5" d="M42.8,42.1c0,0-0.1,1.6-0.9,3.4c-0.8,2.1-2.5,4.4-5.5,4.6c-3.7,0.3-6.5-0.2-8.2-3.1
				c-0.7-1.2-1.2-2.7-1.5-4.8c0,0,0.3,0.2,0.8,0.4c1.3,0.6,4.2,1.7,8,1.2c3.4-0.4,5.5-1.1,6.6-1.5C42.6,42.2,42.8,42.1,42.8,42.1z"
				/>
			<g>
				<path class="st2" d="M41.8,44.4L41.8,44.4c-0.1,0.2-0.1,0.4-0.1,0.4l0,0c0,0-0.5,0.8-2.6,1.4c-0.7,0.2-1.5,0.4-2.5,0.5
					c-1.7,0.3-3.2,0.2-4.5,0c-2-0.3-3.4-0.8-3.5-0.9l0,0c-0.1-0.1-0.2-0.3-0.3-0.4l0,0c-0.4-0.8-0.7-2-0.9-2.7
					c1.3,0.6,4.2,1.7,8,1.2c3.4-0.4,5.5-1.1,6.6-1.5C42.1,43.2,41.9,44,41.8,44.4z"/>
				<path class="st2" d="M41.9,45.6c-0.8,2.1-2.5,4.4-5.5,4.6c-3.7,0.3-6.5-0.2-8.2-3.1c0.1-0.4,0.2-0.8,0.3-1
					c0.1-0.2,0.1-0.2,0.1-0.2l0,0c2.2,0.6,4.3,0.7,6.1,0.6c2-0.1,3.7-0.5,4.9-0.9c1.3-0.4,2.1-0.8,2.1-0.8l0,0l0.1,0.3L41.9,45.6z"
					/>
				<path class="st6" d="M36,46.5c0,0-1.8,0.3-3.9,0.2c-1.2,0-2.5-0.2-3.6-0.6c0.1-0.2,0.1-0.2,0.1-0.2c-0.1-0.1-0.2-0.3-0.3-0.4
					c0.1,0,2.1,0.8,6.4,1C35.1,46.5,35.6,46.5,36,46.5z"/>
				<path class="st6" d="M41.8,44.8l0.1,0.3c-0.7,0.6-1.8,0.9-2.7,1.1c-1.1,0.2-2.4,0.2-2.4,0.2c0.9-0.1,2.1-0.5,2.9-0.8
					c1.3-0.5,2.2-1.1,2.2-1.2C41.8,44.6,41.8,44.8,41.8,44.8z"/>
			</g>
		</g>
		<g>
			<g>
				<g>
					<path class="st0" d="M26.2,34.2c-1.2,0.2-2.4-0.7-2.5-1.9c-0.1-0.4,0-0.9,0.2-1.2C22,30.8,22,29.7,22,29.7
						c0.3,0.5,2.4,0.2,3.3,0.1l0,0c0.1,0,0.2,0,0.3,0l0,0h0.1c1.2-0.1,2.2,0.8,2.4,1.9C28.3,32.9,27.4,34,26.2,34.2z"/>
				</g>
			</g>
		</g>
		<g>
			<path class="st3" d="M33.9,52.8c-1.8-0.2-3.1-0.9-3.2-1c-0.3-0.1-0.3-0.5-0.2-0.7c0.1-0.3,0.5-0.3,0.7-0.2s3.7,2,7-0.1
				c0.3-0.2,0.6-0.1,0.7,0.2c0.2,0.3,0.1,0.6-0.2,0.7C37.1,52.8,35.3,53,33.9,52.8z"/>
		</g>
		<g>
			<path class="st3" d="M36.1,41h-2.7c-0.3,0-0.5-0.2-0.5-0.5s0.2-0.5,0.5-0.5h2.7c0.1,0,0.1,0,0.1,0v-0.1L34,32.2
				c-0.1-0.3,0.1-0.6,0.4-0.7c0.3-0.1,0.6,0.1,0.7,0.4l2.2,7.6c0.1,0.4,0,0.8-0.2,1.1C36.8,40.9,36.5,41,36.1,41z"/>
		</g>
		<path class="st0" d="M29.1,24.5L29.1,24.5c0.1,0.6-0.4,1.2-1,1.2c-2.1,0.1-6.4,0.4-8.4,2.7c0,0,0.7-3.8,8.3-4.7
			C28.5,23.5,29,23.9,29.1,24.5z"/>
		<path class="st0" d="M39.8,24.3L39.8,24.3c-0.1,0.6,0.4,1.1,1,1.1c2.1,0,6.4,0.3,8.5,2.4c0,0-0.8-3.8-8.4-4.5
			C40.4,23.3,39.8,23.7,39.8,24.3z"/>
		<path class="st7" d="M51.3,23.6c-5.1-0.4-18.4-4.5-30.5-8.9c0,0,1.1,12.4-6.1,18.6c0,0-0.1-0.6-0.5-1.3c-0.1-0.9-0.2-1.8-0.3-2.6
			C12.6,17.8,21.6,7.6,33.2,7.5h1c8.6,0.1,15.8,5.7,18.4,13.4c0.3,0.9,0.6,1.9,0.7,2.8C53.4,23.7,52.7,23.7,51.3,23.6z"/>
		<path class="st0" d="M53.7,29c0,0.6-0.1,1.2-0.2,1.8c-1.6-0.9-2.1-4.8-2.2-7.2c-0.1-1.2,0-2,0-2s0.1-0.4,1.4-0.6
			c0.3,0.9,0.6,1.9,0.7,2.8C53.7,25.4,53.8,27.2,53.7,29z"/>
		<path class="st0" d="M39.6,33.1c0,0,0.9-2.9,3.5-3.2c2.6-0.3,4,2.3,4,2.3S43.3,29.5,39.6,33.1z"/>
	</g>
</g>
<g id="DESIGNED_BY_FREEPIK">
</g>
</svg>
