<?xml version="1.0" encoding="utf-8"?>
<!-- Generator: Adobe Illustrator 23.1.1, SVG Export Plug-In . SVG Version: 6.00 Build 0)  -->
<svg version="1.1" xmlns="http://www.w3.org/2000/svg" xmlns:xlink="http://www.w3.org/1999/xlink" x="0px" y="0px"
	 viewBox="0 0 71.8 70.6" style="enable-background:new 0 0 71.8 70.6;" xml:space="preserve">
<style type="text/css">
	.st0{fill:#32324C;}
	.st1{fill:#F88968;}
	.st2{fill:#FFFFFF;}
	.st3{fill:#FFAF82;}
	.st4{fill:#920E08;}
	.st5{fill:#F85C66;}
	.st6{fill:url(#SVGID_1_);}
	.st7{fill:#E2E2E2;}
	.st8{fill:#D9F2FF;}
	.st9{fill:#FFA378;}
	.st10{fill:#32324C;stroke:#32324C;stroke-width:0.5;stroke-miterlimit:10;}
	.st11{fill:url(#SVGID_2_);}
</style>
<g id="OBJECTS">
	<g>
		<g>
			<path class="st0" d="M67.6,35.4c0.7,2.1,1.5,4.4,2.2,6.7c2.3,7.5-4.9,8.4-4.9,8.4s2.3,5.1-1.3,9.2c-3.6,4.1-8.2,1.9-8.2,1.9
				s-1.7,2.2-6.1,2.5c-6.4,0.4-8.7-2.2-8.7-2.2L34,60.7c-0.9,0.5-1.6,3.7-8.6,4.6c-6.4,0.7-9.7-3.1-9.7-3.1
				c-1.7,3.3-9.6,2.7-10.5-2.5c-0.8-4.9,1.4-6.9,1.7-7.2c-4.1,2.9-11-5-3.7-12.5c3-3,4.6-4.5,5.7-6c-3.3,0.8-6.8-3.1-5.3-6.4
				c1.9-4.3,5.4-2.6,8.8-8.8c4.5-8.3,8-11.1,8.2-11.2c0,0,0,0,0,0C26.5,2,35.1-0.5,44.6,0.1c8,0.5,12.7,3.8,15.4,7.2
				c2.3,2.9,3.5,6.6,3.6,10.3c0,0.8,0.1,1.6,0.1,2.3c1.1,2.7,3.4,7.6,6.1,9C73.6,30.9,71.5,36.2,67.6,35.4z"/>
		</g>
		<g>
			<g>
				<g>
					<g>
						<path class="st1" d="M56.3,30c0,0,4.2-4.8,7.6-0.6c3,3.6,1.1,13.3-6.2,13L56.3,30z"/>
					</g>
				</g>
				<path class="st2" d="M62.8,41.8c0,1-0.8,1.7-1.7,1.7c-1,0-1.7-0.8-1.7-1.7c0-1,0.8-1.7,1.7-1.7C62,40.1,62.8,40.8,62.8,41.8z"/>
				<g>
					<g>
						<path class="st3" d="M48.8,66.4c-0.4,4.4-9.4,6.9-14.5-0.5l-0.5-9.6l-0.4-7l16.5,3.2L49,63.6L48.8,66.4z"/>
					</g>
					<g>
						<path class="st1" d="M48.9,64.9c-5.6,0.1-11.9-3.8-15-6.5l-0.5-9.1l16.5,3.2L48.9,64.9z"/>
					</g>
				</g>
				<g>
					<path class="st3" d="M42.5,57.6C25.2,53.7,22,30.9,22,30.9s-0.1-1.5,0.2-3.7c0.2-1.2,0.4-2.6,0.8-4.2c1.2-4.4,3.9-9.4,9.6-11.5
						c0.2-0.1,0.4-0.1,0.5-0.2C42.7,7.9,56.6,9.5,60.8,22c0.2,0.7,0.5,1.6,0.6,2.4c0.1,0.5,0.2,1,0.3,1.5
						C63.6,38.9,58.1,61.2,42.5,57.6z"/>
				</g>
				<g>
					<path class="st4" d="M50.6,47.7c0,0.6-0.2,1.1-0.4,1.5c-0.5,0.9-1.5,1.5-2.6,1.5c-1.3,0-2.5-0.9-2.8-2.1
						c-0.1-0.3-0.2-0.6-0.2-0.9c0-1.7,1.4-3,3-3C49.3,44.7,50.6,46,50.6,47.7z"/>
					<path class="st5" d="M50.2,49.2c-0.5,0.9-1.5,1.5-2.6,1.5c-1.3,0-2.5-0.9-2.8-2.1c0.6-0.2,1.6-0.5,3.1-0.2
						C48.8,48.5,49.7,48.8,50.2,49.2z"/>
				</g>
				<g>
					<g>
						<g>
							<path class="st0" d="M39.1,34.4c-1.2,0.2-2.3-0.7-2.5-1.9c-0.1-0.4,0-0.9,0.2-1.2c-1.8-0.2-1.8-1.3-1.8-1.3
								c0.3,0.5,2.4,0.2,3.3,0.1h0c0.1,0,0.2,0,0.3,0c0,0,0,0,0,0c0,0,0.1,0,0.1,0c1.1-0.1,2.2,0.7,2.3,1.9
								C41.1,33.1,40.3,34.2,39.1,34.4z"/>
						</g>
					</g>
				</g>
				<g>
					<path class="st3" d="M25,31.4c0,0-6.2-3.4-8.2,2.3c-1.8,5,3.9,14.4,11.5,11.3L25,31.4z"/>
				</g>
				<g>
					<path class="st1" d="M25.4,40.8c-0.5-1.6-2.1-5-5.9-6.5c0,0,4.1,3.8,4.4,6.8c0,0.4,0.4,0.7,0.8,0.7l0.1,0
						C25.2,41.8,25.5,41.3,25.4,40.8z"/>
				</g>
				<g>
					<path class="st1" d="M46.2,54.1c-1.7-0.3-2.8-1.1-2.9-1.2c-0.2-0.2-0.3-0.5-0.1-0.7c0.2-0.2,0.5-0.3,0.7-0.1
						c0.1,0.1,3.3,2.2,6.6,0.4c0.2-0.1,0.6,0,0.7,0.2c0.1,0.2,0,0.6-0.2,0.7C49.2,54.3,47.6,54.3,46.2,54.1z"/>
				</g>
				<g>
					<path class="st1" d="M48.5,41.9h-2.6c-0.3,0-0.5-0.2-0.5-0.5c0-0.3,0.2-0.5,0.5-0.5h2.6c0.1,0,0.1,0,0.1,0c0,0,0-0.1,0-0.1
						l-2.2-7.5c-0.1-0.3,0.1-0.6,0.4-0.7c0.3-0.1,0.6,0.1,0.7,0.4l2.2,7.5c0.1,0.4,0,0.8-0.2,1.1C49.2,41.7,48.9,41.9,48.5,41.9z"/>
				</g>
				<path class="st0" d="M39.7,24.3L39.7,24.3c0.2,0.6,0,1.2-0.6,1.4c-1.9,0.6-5.9,2.2-7.2,4.9c0,0-0.4-3.8,6.5-6.8
					C38.9,23.6,39.5,23.8,39.7,24.3z"/>
				<path class="st0" d="M50.7,24.8L50.7,24.8c-0.1,0.6,0.3,1.2,0.9,1.3c2,0.3,6.2,1.2,8,3.6c0,0-0.2-3.8-7.6-5.6
					C51.4,23.8,50.9,24.2,50.7,24.8z"/>
				<g>
					<g>
						<g>
							<path class="st0" d="M53.8,34.1c1.2,0.2,2.3-0.7,2.5-1.9c0.1-0.4,0-0.9-0.2-1.2c1.8-0.2,1.8-1.3,1.8-1.3
								c-0.3,0.5-2.4,0.2-3.3,0.1h0c-0.1,0-0.2,0-0.3,0c0,0,0,0,0,0c0,0-0.1,0-0.1,0c-1.1-0.1-2.2,0.7-2.3,1.9
								C51.7,32.8,52.6,33.9,53.8,34.1z"/>
						</g>
					</g>
				</g>
				<path class="st0" d="M34.2,12.5c0,0-0.9,15.2-8,21.4c0,0-0.6-4-6.1-3.4c0,0-0.5-0.9-1.3-5.5c-0.8-4.6,2.1-23.5,23.1-22.3
					c0,0,6.7-1.4,16,6.6c9.3,8,3.8,16.7,3.8,16.7S46.1,23.8,34.2,12.5z"/>
				<path class="st2" d="M25.5,45.7c0,1-0.8,1.7-1.7,1.7c-1,0-1.7-0.8-1.7-1.7c0-1,0.8-1.7,1.7-1.7C24.7,43.9,25.5,44.7,25.5,45.7z"
					/>
			</g>
		</g>
	</g>
</g>
<g id="DESIGNED_BY_FREEPIK">
</g>
</svg>
